<svg width="1" height="1" viewBox="0 0 1 1" fill="none" xmlns="http://www.w3.org/2000/svg">
<rect width="1" height="1" fill="#E5E5E5"/>
<g id="Frame" clip-path="url(#clip0)">
<path id="runway" d="M0.975 0.8H0.025C0.0111875 0.8 0 0.811188 0 0.825V0.875C0 0.888813 0.0111875 0.9 0.025 0.9H0.975C0.988813 0.9 1 0.888813 1 0.875V0.825C1 0.811188 0.988813 0.8 0.975 0.8Z" fill="black"/>
<path id="plane-launch" d="M0.125859 0.633234C0.135672 0.643922 0.149453 0.649984 0.163875 0.649969L0.367844 0.649687C0.38394 0.649666 0.399806 0.645855 0.414156 0.638562L0.868781 0.407859C0.910563 0.386656 0.948016 0.356391 0.9735 0.31675C1.00211 0.27225 1.00522 0.240047 0.993922 0.217297C0.982656 0.194531 0.955266 0.177812 0.902906 0.174406C0.856266 0.171375 0.809875 0.183656 0.768094 0.204844L0.614172 0.282953L0.272453 0.154734C0.268345 0.151967 0.263571 0.150346 0.258627 0.150041C0.253682 0.149737 0.248746 0.150758 0.244328 0.153L0.141594 0.205141C0.124922 0.213594 0.120891 0.235844 0.133516 0.249719L0.377609 0.403L0.216344 0.484844L0.103297 0.427859C0.0994022 0.425896 0.0951002 0.424875 0.0907385 0.424881C0.0863767 0.424886 0.0820774 0.425917 0.0781875 0.427891L0.0154844 0.459719C-0.000828094 0.468 -0.00512497 0.489594 0.00678128 0.503594L0.125859 0.633234Z" fill="black"/>
</g>
<defs>
<clipPath id="clip0">
<rect width="1" height="1" fill="white"/>
</clipPath>
</defs>
</svg>

<svg stroke="currentColor" fill="currentColor" stroke-width="0" viewBox="0 0 640 512" height="1em" width="1em" xmlns="http://www.w3.org/2000/svg"><path d="M624 448H16c-8.84 0-16 7.16-16 16v32c0 8.84 7.16 16 16 16h608c8.84 0 16-7.16 16-16v-32c0-8.84-7.16-16-16-16zM80.55 341.27c6.28 6.84 15.1 10.72 24.33 10.71l130.54-.18a65.62 65.62 0 0 0 29.64-7.12l290.96-147.65c26.74-13.57 50.71-32.94 67.02-58.31 18.31-28.48 20.3-49.09 13.07-63.65-7.21-14.57-24.74-25.27-58.25-27.45-29.85-1.94-59.54 5.92-86.28 19.48l-98.51 49.99-218.7-82.06a17.799 17.799 0 0 0-18-1.11L90.62 67.29c-10.67 5.41-13.25 19.65-5.17 28.53l156.22 98.1-103.21 52.38-72.35-36.47a17.804 17.804 0 0 0-16.07.02L9.91 230.22c-10.44 5.3-13.19 19.12-5.57 28.08l76.21 82.97z"></path></svg>
