<svg width="1" height="1" viewBox="0 0 1 1" fill="none" xmlns="http://www.w3.org/2000/svg">
<rect width="1" height="1" fill="#E5E5E5"/>
<g id="Frame" clip-path="url(#clip0)">
<path id="runway" d="M0.975 0.8H0.025C0.0111875 0.8 0 0.811188 0 0.825V0.875C0 0.888813 0.0111875 0.9 0.025 0.9H0.975C0.988813 0.9 1 0.888813 1 0.875V0.825C1 0.811188 0.988813 0.8 0.975 0.8Z" fill="black"/>
<path id="plane-land" d="M0.0700156 0.421344L0.208672 0.546344C0.220049 0.556617 0.233681 0.564072 0.248469 0.568109L0.697844 0.690531C0.739219 0.701797 0.783094 0.704156 0.824406 0.692656C0.870766 0.679734 0.892281 0.659516 0.898234 0.636859C0.904219 0.614203 0.895531 0.58575 0.861719 0.550984C0.831594 0.520016 0.792422 0.49975 0.751047 0.488484L0.598688 0.446984L0.441875 0.147219C0.439516 0.138141 0.432578 0.131047 0.423656 0.128609L0.321953 0.100906C0.305453 0.0964062 0.289297 0.109219 0.289594 0.126594L0.364469 0.383172L0.204781 0.339672L0.161672 0.233609C0.158656 0.225969 0.152281 0.220219 0.144453 0.218094L0.082375 0.201172C0.0662188 0.196766 0.0502969 0.208984 0.05 0.225984L0.0503594 0.385016C0.0506563 0.398938 0.0597813 0.412109 0.0700156 0.421344Z" fill="black"/>
</g>
<defs>
<clipPath id="clip0">
<rect width="1" height="1" fill="white"/>
</clipPath>
</defs>
</svg>
